<?xml version="1.0" encoding="utf-8"?>
<!-- Generator: Adobe Illustrator 22.0.0, SVG Export Plug-In . SVG Version: 6.00 Build 0)  -->
<svg version="1.1" id="book-and-appointment_xA0_Image_1_"
	 xmlns="http://www.w3.org/2000/svg" xmlns:xlink="http://www.w3.org/1999/xlink" x="0px" y="0px" viewBox="0 0 82 82"
	 style="enable-background:new 0 0 82 82;" xml:space="preserve">
<style type="text/css">
	.st0{fill:#F6E6FE;}
	.st1{fill:#428260;}
	.st2{fill:#FE805A;}
</style>
<g>
	<g>
		<circle class="st0" cx="41" cy="41" r="40.3"/>
	</g>
	<g>
		<circle class="st1" cx="61.6" cy="57.4" r="1.4"/>
	</g>
	<g>
		<path class="st2" d="M48.6,67.9c-0.4-0.1-0.8-0.3-1.2-0.6c-0.3-0.3-0.6-0.7-0.8-1.2c-0.2-0.5-0.2-1-0.2-1.4s0.3-0.9,0.6-1.2
			c0.3-0.3,0.7-0.6,1.1-0.8c0.4-0.1,0.8-0.2,1.2-0.1c0.4,0.1,0.7,0.2,1.1,0.5l-0.4-1l0.6-0.2l2.5,6.9l-0.7,0.2l-1.1-2.9
			c-0.1,0.4-0.3,0.7-0.5,1s-0.6,0.5-1,0.6C49.5,68,49,68,48.6,67.9z M47.5,64c-0.2,0.3-0.4,0.6-0.4,0.9c-0.1,0.3,0,0.7,0.1,1.1
			s0.3,0.7,0.6,0.9s0.6,0.4,0.9,0.4s0.7,0,1-0.1c0.3-0.1,0.6-0.3,0.9-0.6c0.2-0.3,0.4-0.6,0.4-0.9c0.1-0.3,0-0.7-0.1-1.1
			c-0.1-0.4-0.3-0.7-0.6-0.9c-0.3-0.2-0.6-0.4-0.9-0.4c-0.3-0.1-0.7,0-1,0.1C48,63.5,47.7,63.7,47.5,64z"/>
		<path class="st2" d="M42.8,64.3c0.4,0.2,0.7,0.5,1,0.9c0.2,0.4,0.4,0.9,0.4,1.4c0,0.5-0.1,1-0.3,1.4c-0.2,0.4-0.5,0.7-0.9,1
			c-0.4,0.2-0.8,0.4-1.4,0.4s-1-0.1-1.4-0.3c-0.4-0.2-0.7-0.5-1-0.9c-0.2-0.4-0.4-0.9-0.4-1.4c0-0.5,0.1-1,0.3-1.4
			c0.2-0.4,0.5-0.7,0.9-1c0.4-0.2,0.9-0.4,1.4-0.4S42.3,64.1,42.8,64.3z M40.4,64.9c-0.3,0.2-0.5,0.4-0.7,0.7s-0.2,0.7-0.2,1.1
			c0,0.4,0.1,0.7,0.3,1.1s0.4,0.5,0.7,0.7c0.3,0.2,0.6,0.2,1,0.2s0.7-0.1,1-0.3s0.5-0.4,0.7-0.7c0.2-0.3,0.2-0.7,0.2-1.1
			c0-0.4-0.1-0.7-0.3-1.1c-0.2-0.3-0.4-0.5-0.7-0.7c-0.3-0.2-0.6-0.2-1-0.2C41,64.6,40.7,64.7,40.4,64.9z"/>
		<path class="st2" d="M35.8,63.8c0.3,0.3,0.5,0.7,0.6,1.2c0.1,0.5,0.1,0.9-0.1,1.4c-0.2,0.5-0.4,0.9-0.7,1.2s-0.7,0.5-1.2,0.6
			c-0.5,0.1-0.9,0.1-1.4-0.1s-0.9-0.4-1.2-0.7c-0.3-0.3-0.5-0.7-0.6-1.2c-0.1-0.5-0.1-0.9,0.1-1.4c0.2-0.5,0.4-0.9,0.7-1.2
			s0.7-0.5,1.2-0.6c0.5-0.1,0.9-0.1,1.4,0.1S35.5,63.4,35.8,63.8z M33.4,63.6c-0.3,0.1-0.6,0.2-0.9,0.5c-0.3,0.2-0.4,0.6-0.6,0.9
			s-0.1,0.7-0.1,1.1c0.1,0.3,0.2,0.6,0.4,0.9c0.2,0.2,0.5,0.4,0.9,0.5c0.4,0.1,0.7,0.1,1,0.1c0.3-0.1,0.6-0.2,0.9-0.5
			c0.3-0.2,0.4-0.6,0.6-0.9s0.1-0.7,0.1-1.1c-0.1-0.3-0.2-0.6-0.4-0.9c-0.2-0.2-0.5-0.4-0.9-0.5C34,63.5,33.7,63.5,33.4,63.6z"/>
		<path class="st2" d="M27,62.2l1.7-0.2l0.9-1.2l0.6,0.4l-4.2,6l-0.6-0.4l2.9-4.1l-4.2,0.5l-0.7-0.5l3.1-0.5l-0.2-3.9l0.7,0.5
			L27,62.2z"/>
		<path class="st2" d="M16.8,53.5c0.1-0.5,0.5-0.9,1.1-1.2l2.8-1.6l0.3,0.6l-0.7,0.4c0.3,0,0.6,0.1,0.9,0.3s0.5,0.5,0.7,0.8
			c0.3,0.5,0.4,1,0.3,1.4s-0.3,0.8-0.7,1c-0.4,0.2-0.8,0.2-1.2,0.1c-0.4-0.1-0.8-0.5-1.1-1.1l-0.8-1.4L18.2,53
			c-0.4,0.2-0.6,0.5-0.7,0.8c-0.1,0.3,0,0.7,0.2,1.1c0.2,0.3,0.4,0.5,0.6,0.8c0.2,0.2,0.5,0.4,0.8,0.5l-0.3,0.5
			c-0.3-0.1-0.6-0.3-0.9-0.6c-0.3-0.3-0.5-0.6-0.7-0.9C16.8,54.6,16.7,54,16.8,53.5z M20.6,52.3c-0.3-0.2-0.6-0.2-1-0.2l-0.7,0.4
			l0.8,1.4c0.4,0.8,0.9,1,1.5,0.7c0.3-0.1,0.4-0.4,0.5-0.7c0-0.3,0-0.6-0.2-1C21.2,52.7,20.9,52.5,20.6,52.3z"/>
		<path class="st2" d="M14.2,45.1c0.3-0.5,0.8-0.8,1.5-0.9l3-0.6l0.1,0.7l-2.9,0.6c-0.5,0.1-0.9,0.3-1.1,0.7
			c-0.2,0.3-0.3,0.7-0.2,1.2c0.1,0.6,0.4,1,0.8,1.2c0.4,0.3,0.9,0.3,1.5,0.2l2.7-0.6l0.1,0.7l-5.1,1.1l-0.1-0.7l0.9-0.2
			c-0.4-0.1-0.6-0.3-0.9-0.6c-0.2-0.3-0.4-0.7-0.5-1.1C13.9,46.1,13.9,45.5,14.2,45.1z"/>
		<path class="st2" d="M15.1,32.8c0.4-0.3,0.9-0.3,1.6-0.2l3.1,0.8l-0.2,0.7l-0.8-0.2c0.2,0.2,0.4,0.5,0.5,0.8
			c0.1,0.3,0.1,0.7,0,1.1c-0.1,0.6-0.4,1-0.7,1.3c-0.4,0.3-0.7,0.3-1.2,0.2c-0.4-0.1-0.7-0.3-0.9-0.7s-0.2-0.9,0-1.6l0.4-1.6
			l-0.3-0.1c-0.4-0.1-0.8-0.1-1.1,0.1c-0.3,0.2-0.5,0.5-0.6,1c-0.1,0.3-0.1,0.6-0.1,1c0,0.3,0.1,0.6,0.3,0.9l-0.6,0.2
			c-0.2-0.3-0.3-0.7-0.3-1c0-0.4,0-0.8,0.1-1.2C14.4,33.6,14.7,33.1,15.1,32.8z M18.7,34.6c-0.1-0.3-0.3-0.6-0.6-0.8l-0.8-0.2
			l-0.4,1.6c-0.2,0.9,0,1.4,0.6,1.5c0.3,0.1,0.6,0,0.8-0.2c0.2-0.2,0.4-0.5,0.5-0.9C18.9,35.2,18.9,34.9,18.7,34.6z"/>
		<path class="st2" d="M18.6,24.9c0.4-0.2,0.8-0.3,1.3-0.3s0.9,0.2,1.4,0.4c0.4,0.3,0.8,0.6,1,1c0.2,0.4,0.3,0.8,0.3,1.3
			c0,0.5-0.1,0.9-0.4,1.3c-0.2,0.4-0.5,0.6-0.8,0.8c-0.3,0.2-0.7,0.3-1.1,0.3l2.5,1.5l-0.4,0.6l-6.1-3.7l0.3-0.6l0.9,0.5
			c-0.2-0.4-0.3-0.7-0.2-1.1c0-0.4,0.1-0.8,0.4-1.2C17.9,25.5,18.2,25.2,18.6,24.9z M22,27.4c0-0.3-0.1-0.7-0.3-1s-0.4-0.6-0.8-0.8
			c-0.3-0.2-0.7-0.3-1-0.3c-0.4,0-0.7,0.1-1,0.2c-0.3,0.2-0.5,0.4-0.7,0.7c-0.2,0.3-0.3,0.6-0.3,1s0.1,0.7,0.3,1
			c0.2,0.3,0.4,0.6,0.8,0.8c0.3,0.2,0.7,0.3,1,0.3c0.4,0,0.7-0.1,1-0.2c0.3-0.2,0.5-0.4,0.7-0.7C21.8,28,21.9,27.7,22,27.4z"/>
		<path class="st2" d="M24.9,18.4c0.4-0.1,0.9-0.1,1.3,0.1c0.4,0.2,0.8,0.4,1.2,0.8c0.3,0.4,0.6,0.8,0.6,1.3
			c0.1,0.5,0.1,0.9-0.1,1.3c-0.2,0.4-0.4,0.8-0.8,1.1c-0.3,0.3-0.7,0.5-1,0.5c-0.4,0.1-0.8,0.1-1.1,0l1.9,2.2l-0.5,0.5l-4.6-5.4
			l0.5-0.4l0.7,0.8c-0.1-0.4,0-0.8,0.1-1.1c0.1-0.4,0.4-0.7,0.7-1C24,18.7,24.4,18.5,24.9,18.4z M27.2,21.8c0.1-0.3,0.1-0.7,0.1-1
			c-0.1-0.3-0.2-0.7-0.5-1c-0.3-0.3-0.6-0.5-0.9-0.6c-0.3-0.1-0.7-0.2-1-0.1c-0.3,0.1-0.6,0.2-0.9,0.4c-0.3,0.2-0.5,0.5-0.6,0.8
			s-0.1,0.7-0.1,1s0.2,0.7,0.5,1c0.3,0.3,0.6,0.5,0.9,0.6s0.7,0.2,1,0.1c0.3-0.1,0.6-0.2,0.9-0.5C26.9,22.4,27.1,22.1,27.2,21.8z"/>
		<path class="st2" d="M31.5,19.7c-0.5-0.1-0.9-0.2-1.2-0.5c-0.4-0.3-0.6-0.7-0.8-1.1c-0.2-0.5-0.3-0.9-0.2-1.4
			c0.1-0.5,0.2-0.9,0.5-1.2c0.3-0.4,0.7-0.6,1.1-0.8c0.5-0.2,0.9-0.3,1.4-0.2c0.5,0.1,0.9,0.2,1.2,0.5c0.4,0.3,0.6,0.7,0.8,1.1
			c0.2,0.5,0.3,0.9,0.2,1.4c-0.1,0.5-0.2,0.9-0.5,1.2s-0.7,0.6-1.1,0.8S32,19.8,31.5,19.7z M33.5,18.4c0.2-0.3,0.3-0.6,0.4-0.9
			c0-0.4,0-0.7-0.2-1.1c-0.1-0.4-0.4-0.7-0.6-0.9c-0.3-0.2-0.6-0.4-0.9-0.4c-0.3,0-0.7,0-1,0.1c-0.3,0.1-0.6,0.3-0.8,0.6
			c-0.2,0.3-0.3,0.6-0.4,0.9c0,0.4,0,0.7,0.2,1.1c0.1,0.4,0.4,0.7,0.6,0.9c0.3,0.2,0.6,0.4,0.9,0.4c0.3,0,0.7,0,1-0.1
			S33.3,18.6,33.5,18.4z"/>
		<path class="st2" d="M36.8,11.7c-0.1-0.1-0.2-0.2-0.2-0.3c0-0.1,0-0.3,0.1-0.4s0.2-0.2,0.3-0.2c0.1,0,0.3,0,0.4,0.1
			c0.1,0.1,0.2,0.2,0.2,0.3c0,0.1,0,0.3-0.1,0.4c-0.1,0.1-0.2,0.2-0.3,0.2S36.9,11.8,36.8,11.7z M37,13l0.7-0.1l0.7,5.2l-0.7,0.1
			L37,13z"/>
		<path class="st2" d="M45.9,13.6c0.3,0.4,0.5,1,0.4,1.7l-0.3,3l-0.7-0.1l0.3-2.9c0.1-0.5,0-1-0.3-1.3c-0.2-0.3-0.6-0.5-1.1-0.6
			c-0.6-0.1-1,0-1.4,0.3s-0.6,0.7-0.6,1.3l-0.3,2.7l-0.7-0.1l0.6-5.2l0.7,0.1l-0.1,1c0.2-0.3,0.5-0.5,0.9-0.6
			c0.4-0.1,0.8-0.2,1.2-0.1C45.1,13,45.6,13.2,45.9,13.6z"/>
		<path class="st2" d="M51.2,20c-0.2,0.1-0.4,0.1-0.6,0.1c-0.2,0-0.4-0.1-0.6-0.2c-0.5-0.2-0.7-0.5-0.9-0.8
			c-0.1-0.3-0.1-0.7,0.1-1.2l1.2-2.9l-0.9-0.4l0.2-0.5l0.9,0.4l0.4-1.1l0.6,0.3l-0.4,1.1l1.5,0.6l-0.2,0.5l-1.5-0.6l-1.2,2.9
			c-0.1,0.3-0.1,0.5-0.1,0.7c0.1,0.2,0.3,0.4,0.5,0.5c0.1,0.1,0.3,0.1,0.4,0.1s0.3,0,0.4,0L51.2,20z"/>
		<path class="st2" d="M62,23.2c0,0.5-0.2,1.1-0.7,1.6L59.2,27l-0.5-0.5l2-2.1c0.4-0.4,0.6-0.8,0.6-1.2c0-0.4-0.2-0.7-0.5-1.1
			c-0.4-0.4-0.8-0.5-1.3-0.5c-0.5,0-0.9,0.3-1.3,0.7l-1.9,2l-0.5-0.5l2-2.1c0.4-0.4,0.6-0.8,0.6-1.2c0-0.4-0.2-0.7-0.5-1.1
			c-0.4-0.4-0.8-0.5-1.3-0.5c-0.5,0-0.9,0.3-1.3,0.7l-1.9,2L53,21.1l3.6-3.8l0.5,0.5l-0.7,0.7c0.4-0.1,0.7-0.1,1.1,0
			c0.4,0.1,0.7,0.3,1,0.6c0.3,0.3,0.5,0.6,0.6,1c0.1,0.4,0.1,0.7,0,1.1c0.4-0.1,0.8-0.1,1.2,0c0.4,0.1,0.8,0.3,1.1,0.6
			C61.8,22.2,62,22.7,62,23.2z"/>
		<path class="st2" d="M64.4,32.5l-1.8-4c-0.5,0.3-0.8,0.6-0.9,1.1c-0.1,0.5-0.1,1,0.1,1.5c0.1,0.3,0.3,0.5,0.5,0.7s0.5,0.3,0.8,0.4
			l-0.3,0.6c-0.3-0.1-0.7-0.3-0.9-0.5c-0.3-0.3-0.5-0.6-0.7-1c-0.2-0.5-0.3-1-0.3-1.4s0.2-0.9,0.5-1.3c0.3-0.4,0.6-0.7,1.1-0.9
			c0.5-0.2,0.9-0.3,1.4-0.3c0.5,0,0.9,0.2,1.2,0.4c0.4,0.3,0.6,0.6,0.8,1c0.2,0.4,0.3,0.9,0.2,1.3c0,0.4-0.2,0.8-0.5,1.2
			c-0.3,0.4-0.6,0.7-1.1,0.9L64.4,32.5z M64.5,28.3c-0.4-0.2-0.9-0.2-1.4,0l1.5,3.4c0.5-0.3,0.8-0.6,0.9-1c0.2-0.4,0.1-0.9-0.1-1.4
			C65.2,28.8,64.9,28.5,64.5,28.3z"/>
		<path class="st2" d="M68,39.3c-0.3,0.4-0.9,0.7-1.6,0.8l-3,0.4l-0.1-0.7l2.9-0.4c0.5-0.1,0.9-0.3,1.2-0.6c0.2-0.3,0.3-0.7,0.3-1.2
			c-0.1-0.6-0.3-1-0.7-1.3c-0.4-0.3-0.8-0.4-1.4-0.3l-2.7,0.3l-0.1-0.7L68,35l0.1,0.7l-1,0.1c0.3,0.2,0.6,0.4,0.8,0.7
			c0.2,0.3,0.4,0.7,0.4,1.1C68.5,38.3,68.3,38.8,68,39.3z"/>
		<path class="st2" d="M63.2,45.9c-0.1-0.1-0.2-0.3-0.2-0.5c0-0.2,0-0.4,0-0.6c0.1-0.5,0.2-0.8,0.5-1.1c0.3-0.2,0.7-0.3,1.2-0.2
			l3.1,0.4l0.1-0.9l0.6,0.1L68.4,44l1.1,0.2l-0.1,0.7l-1.1-0.2l-0.2,1.6l-0.6-0.1l0.2-1.6l-3.1-0.4c-0.3,0-0.6,0-0.7,0.1
			c-0.2,0.1-0.3,0.3-0.3,0.6c0,0.1,0,0.3,0,0.4c0,0.1,0.1,0.3,0.2,0.4L63.2,45.9z"/>
	</g>
</g>
</svg>
