<?xml version="1.0" encoding="utf-8"?>
<!-- Generator: Adobe Illustrator 24.3.0, SVG Export Plug-In . SVG Version: 6.00 Build 0)  -->
<svg version="1.1" id="Layer_1" xmlns="http://www.w3.org/2000/svg" xmlns:xlink="http://www.w3.org/1999/xlink" x="0px" y="0px"
	 viewBox="0 0 156.93 150.72" style="enable-background:new 0 0 156.93 150.72;" xml:space="preserve">
<style type="text/css">
	.st0{fill:#FFFFFF;}
</style>
<g>
	<path class="st0" d="M100.44,130.65c-0.13,0.02-0.25,0.04-0.36,0.05c-0.11,0.02-0.22,0.02-0.33,0.02s-0.22-0.01-0.33-0.02
		c-0.11-0.02-0.23-0.03-0.35-0.05c0.01,0.24,0.06,5.14,0.06,5.14H99.1c-0.44-1.01-1.22-1.52-2.34-1.52c-0.39,0-0.79,0.08-1.18,0.24
		c-0.39,0.16-0.74,0.39-1.05,0.71c-0.31,0.32-0.56,0.72-0.75,1.19c-0.19,0.48-0.29,1.04-0.29,1.69c0,0.66,0.09,1.22,0.27,1.69
		c0.18,0.47,0.41,0.86,0.7,1.15c0.29,0.3,0.62,0.51,0.99,0.65c0.37,0.13,0.75,0.2,1.13,0.2c0.38,0,0.7-0.05,0.99-0.15
		s0.53-0.23,0.74-0.39c0.21-0.16,0.38-0.34,0.52-0.52s0.24-0.36,0.33-0.52h0.03l-0.04,1.44c0.2-0.02,0.39-0.03,0.58-0.03
		c0.19,0,0.39,0.01,0.59,0.03c-0.01-0.59-0.02-1.16-0.03-1.72c-0.01-0.56-0.01-1.18-0.01-1.88c0-0.65,0-1.36,0.01-2.14
		C100.28,135.12,100.41,130.98,100.44,130.65z M99.07,139.12c-0.09,0.41-0.22,0.77-0.41,1.09c-0.19,0.32-0.42,0.58-0.71,0.77
		c-0.28,0.2-0.62,0.3-1.02,0.3c-0.24,0-0.49-0.04-0.74-0.14c-0.25-0.09-0.48-0.26-0.68-0.49c-0.2-0.24-0.36-0.55-0.49-0.95
		c-0.13-0.39-0.19-0.9-0.19-1.5c0-0.46,0.04-0.88,0.13-1.28c0.09-0.4,0.22-0.75,0.39-1.05c0.18-0.3,0.4-0.53,0.67-0.7
		c0.27-0.17,0.58-0.25,0.95-0.25c0.73,0,1.28,0.26,1.65,0.77c0.38,0.51,0.56,1.25,0.56,2.23C99.2,138.31,99.15,138.72,99.07,139.12z
		 M13.91,140.12c-0.26-0.33-0.54-0.67-0.82-1.03c-0.28-0.36-0.56-0.7-0.82-1.03c-0.26-0.33-0.5-0.63-0.71-0.9
		c-0.21-0.27-0.38-0.49-0.5-0.64c0.29-0.04,0.62-0.12,0.98-0.25c0.36-0.13,0.7-0.3,1.01-0.53c0.31-0.23,0.58-0.52,0.8-0.87
		c0.22-0.35,0.33-0.77,0.33-1.25c0-0.46-0.08-0.84-0.25-1.14c-0.17-0.3-0.4-0.55-0.68-0.74c-0.29-0.19-0.63-0.32-1.01-0.4
		c-0.38-0.08-0.79-0.12-1.22-0.12c-0.29,0-0.58,0.01-0.87,0.04c-0.28,0.03-0.57,0.04-0.87,0.04c-0.29,0-0.58-0.01-0.87-0.02
		c-0.28-0.02-0.57-0.03-0.87-0.05c0.03,0.67,0.06,1.32,0.08,1.97c0.03,0.64,0.04,1.3,0.04,1.97v2.61c0,0.67-0.01,1.33-0.04,1.98
		c-0.03,0.65-0.05,1.29-0.08,1.91c0.23-0.02,0.48-0.03,0.74-0.03c0.26,0,0.51,0.01,0.74,0.03c-0.03-0.63-0.06-1.27-0.08-1.91
		c-0.02-0.65-0.04-1.31-0.04-1.98v-1.11h0.58c0.32,0.33,0.68,0.74,1.07,1.22c0.39,0.48,0.77,0.96,1.15,1.45
		c0.37,0.49,0.72,0.94,1.03,1.37c0.31,0.43,0.54,0.74,0.69,0.96c0.14-0.02,0.29-0.03,0.44-0.03h0.9c0.15,0,0.3,0.01,0.46,0.03
		c-0.14-0.14-0.33-0.35-0.56-0.62C14.42,140.75,14.17,140.45,13.91,140.12z M9.93,136.09c-0.2,0-0.39,0-0.55-0.01
		c-0.17-0.01-0.32-0.03-0.46-0.06v-0.87c0-0.55,0.01-1.09,0.03-1.64c0.02-0.55,0.04-1.1,0.06-1.65c0.16-0.02,0.36-0.04,0.59-0.05
		c0.23-0.01,0.53-0.02,0.88-0.02c0.26,0,0.53,0.03,0.8,0.08c0.27,0.06,0.53,0.16,0.76,0.31c0.23,0.15,0.42,0.36,0.57,0.62
		c0.15,0.26,0.22,0.58,0.22,0.98c0,0.46-0.09,0.83-0.28,1.13c-0.19,0.3-0.42,0.54-0.71,0.71c-0.28,0.18-0.59,0.3-0.93,0.37
		C10.57,136.05,10.24,136.09,9.93,136.09z M28.43,132.44c-0.5-0.47-1.1-0.82-1.8-1.06c-0.7-0.24-1.47-0.36-2.31-0.36
		c-0.83,0-1.59,0.12-2.29,0.36c-0.7,0.24-1.3,0.6-1.8,1.06c-0.5,0.47-0.89,1.04-1.17,1.71c-0.28,0.67-0.42,1.44-0.42,2.3
		s0.14,1.63,0.42,2.3c0.28,0.67,0.67,1.24,1.17,1.71c0.5,0.47,1.1,0.81,1.8,1.04c0.7,0.23,1.46,0.34,2.29,0.34
		c0.84,0,1.61-0.11,2.31-0.34c0.7-0.23,1.3-0.57,1.8-1.04c0.5-0.47,0.89-1.03,1.17-1.71c0.28-0.67,0.42-1.44,0.42-2.3
		s-0.14-1.63-0.42-2.3C29.32,133.48,28.93,132.91,28.43,132.44z M28.21,138.63c-0.21,0.61-0.51,1.12-0.89,1.52
		c-0.38,0.4-0.83,0.7-1.34,0.89c-0.51,0.19-1.07,0.29-1.66,0.29c-0.59,0-1.14-0.1-1.65-0.29c-0.51-0.19-0.96-0.49-1.34-0.89
		c-0.38-0.4-0.68-0.91-0.89-1.52c-0.21-0.61-0.32-1.34-0.32-2.18s0.11-1.57,0.32-2.18c0.21-0.61,0.51-1.12,0.89-1.52
		c0.38-0.4,0.83-0.7,1.34-0.89c0.51-0.19,1.06-0.29,1.65-0.29c0.6,0,1.15,0.1,1.66,0.29c0.51,0.19,0.96,0.49,1.34,0.89
		c0.38,0.4,0.68,0.91,0.89,1.52c0.21,0.61,0.32,1.34,0.32,2.18S28.42,138.02,28.21,138.63z M40.57,136.74
		c-0.52-0.39-1.23-0.61-2.13-0.65v-0.03c0.76-0.17,1.37-0.47,1.85-0.9c0.47-0.43,0.71-1.01,0.71-1.76c0-0.43-0.09-0.78-0.26-1.06
		c-0.17-0.28-0.41-0.51-0.7-0.68c-0.29-0.17-0.63-0.28-1.02-0.35c-0.39-0.07-0.8-0.1-1.23-0.1c-0.26,0-0.53,0.01-0.8,0.04
		c-0.27,0.03-0.54,0.04-0.81,0.04c-0.26,0-0.53-0.01-0.8-0.02c-0.27-0.02-0.54-0.03-0.8-0.05c0.03,0.65,0.06,1.3,0.08,1.94
		c0.02,0.65,0.04,1.31,0.04,1.98v2.61c0,0.67-0.01,1.32-0.04,1.97c-0.03,0.64-0.05,1.29-0.08,1.94c0.24-0.02,0.49-0.03,0.74-0.03
		h0.74c0.24,0,0.49,0.01,0.74,0.02c0.25,0.01,0.49,0.02,0.74,0.02c0.45,0,0.89-0.05,1.34-0.14c0.45-0.1,0.86-0.26,1.24-0.5
		c0.37-0.24,0.68-0.55,0.91-0.93c0.23-0.38,0.35-0.86,0.35-1.43C41.35,137.77,41.09,137.13,40.57,136.74z M35.93,134.73
		c0-0.49,0.01-0.97,0.03-1.44c0.02-0.48,0.04-0.96,0.06-1.44c0.14-0.02,0.3-0.04,0.49-0.05c0.18-0.01,0.41-0.02,0.67-0.02
		c0.29,0,0.59,0.02,0.88,0.07c0.29,0.05,0.56,0.14,0.79,0.27c0.23,0.14,0.43,0.33,0.58,0.58c0.15,0.25,0.23,0.58,0.23,0.99
		c0,0.43-0.08,0.78-0.25,1.06c-0.17,0.28-0.39,0.5-0.66,0.67c-0.27,0.17-0.59,0.29-0.93,0.36c-0.35,0.07-0.7,0.11-1.06,0.11h-0.82
		V134.73z M39.76,139.66c-0.13,0.32-0.31,0.59-0.53,0.8c-0.22,0.22-0.48,0.38-0.78,0.49c-0.3,0.11-0.61,0.17-0.93,0.17
		c-0.27,0-0.54-0.01-0.8-0.02c-0.26-0.02-0.49-0.03-0.68-0.05c-0.02-0.52-0.04-1.03-0.06-1.53c-0.02-0.51-0.03-1.02-0.03-1.53v-1.55
		h0.68c0.51,0,0.96,0.03,1.37,0.09c0.41,0.06,0.76,0.17,1.06,0.33c0.29,0.16,0.52,0.38,0.68,0.65s0.24,0.64,0.24,1.07
		C39.95,138.98,39.89,139.34,39.76,139.66z M51.88,140.78c-0.24,0.05-0.53,0.09-0.86,0.11s-0.68,0.04-1.05,0.06
		c-0.37,0.02-0.75,0.02-1.13,0.02h-1.06c-0.01-0.19-0.02-0.48-0.02-0.85c-0.01-0.37-0.01-0.85-0.01-1.43v-1.5c0-0.16,0-0.3,0.01-0.4
		c0.01-0.11,0.01-0.21,0.01-0.3c0.18,0,0.43,0,0.74,0.01c0.31,0.01,0.64,0.01,0.99,0.02c0.35,0.01,0.7,0.02,1.05,0.04
		c0.35,0.02,0.66,0.05,0.92,0.08c-0.03-0.15-0.05-0.3-0.05-0.46c0-0.16,0.02-0.32,0.05-0.47c-0.22,0.02-0.46,0.04-0.71,0.05
		c-0.25,0.02-0.52,0.03-0.81,0.05c-0.29,0.02-0.62,0.03-0.97,0.04c-0.35,0.01-0.75,0.02-1.2,0.02c0-0.19,0-0.48-0.01-0.85
		c-0.01-0.37-0.01-0.76-0.01-1.15c0-0.37,0.01-0.71,0.02-1c0.01-0.29,0.03-0.6,0.04-0.93c0.5,0,0.92,0.01,1.28,0.02
		s0.68,0.03,0.98,0.05c0.3,0.02,0.58,0.04,0.85,0.06c0.27,0.02,0.56,0.04,0.89,0.06c-0.03-0.15-0.05-0.3-0.05-0.46
		c0-0.15,0.02-0.3,0.05-0.46c-0.46,0.02-0.91,0.04-1.35,0.05c-0.45,0.02-0.9,0.02-1.35,0.02c-0.46,0-0.91-0.01-1.36-0.02
		c-0.45-0.02-0.9-0.03-1.36-0.05c0.03,0.65,0.06,1.3,0.08,1.94c0.02,0.65,0.04,1.31,0.04,1.98v2.61c0,0.67-0.01,1.32-0.04,1.97
		c-0.03,0.64-0.05,1.29-0.08,1.94c0.47-0.02,0.93-0.03,1.38-0.03h2.76c0.45,0,0.9,0.01,1.36,0.03c-0.03-0.1-0.05-0.23-0.05-0.39
		c0-0.07,0-0.15,0.01-0.24C51.85,140.93,51.86,140.85,51.88,140.78z M62.88,140.12c-0.26-0.33-0.54-0.67-0.82-1.03
		c-0.28-0.36-0.56-0.7-0.82-1.03c-0.26-0.33-0.5-0.63-0.71-0.9c-0.21-0.27-0.38-0.49-0.5-0.64c0.29-0.04,0.62-0.12,0.98-0.25
		s0.7-0.3,1.01-0.53c0.31-0.23,0.58-0.52,0.8-0.87c0.22-0.35,0.33-0.77,0.33-1.25c0-0.46-0.08-0.84-0.25-1.14
		c-0.17-0.3-0.4-0.55-0.68-0.74c-0.29-0.19-0.63-0.32-1.01-0.4c-0.38-0.08-0.79-0.12-1.22-0.12c-0.29,0-0.58,0.01-0.87,0.04
		c-0.28,0.03-0.57,0.04-0.87,0.04c-0.29,0-0.58-0.01-0.87-0.02c-0.28-0.02-0.57-0.03-0.87-0.05c0.03,0.67,0.06,1.32,0.08,1.97
		c0.02,0.64,0.04,1.3,0.04,1.97v2.61c0,0.67-0.01,1.33-0.04,1.98c-0.03,0.65-0.05,1.29-0.08,1.91c0.23-0.02,0.48-0.03,0.74-0.03
		s0.51,0.01,0.74,0.03c-0.03-0.63-0.06-1.27-0.08-1.91c-0.03-0.65-0.04-1.31-0.04-1.98v-1.11h0.58c0.32,0.33,0.68,0.74,1.07,1.22
		c0.39,0.48,0.77,0.96,1.15,1.45c0.37,0.49,0.72,0.94,1.03,1.37c0.31,0.43,0.54,0.74,0.69,0.96c0.14-0.02,0.29-0.03,0.44-0.03h0.9
		c0.15,0,0.3,0.01,0.46,0.03c-0.14-0.14-0.33-0.35-0.56-0.62C63.39,140.75,63.15,140.45,62.88,140.12z M58.9,136.09
		c-0.2,0-0.39,0-0.55-0.01c-0.17-0.01-0.32-0.03-0.46-0.06v-0.87c0-0.55,0.01-1.09,0.03-1.64c0.02-0.55,0.04-1.1,0.06-1.65
		c0.16-0.02,0.36-0.04,0.59-0.05c0.23-0.01,0.53-0.02,0.88-0.02c0.26,0,0.53,0.03,0.8,0.08c0.27,0.06,0.53,0.16,0.76,0.31
		c0.23,0.15,0.42,0.36,0.57,0.62c0.15,0.26,0.22,0.58,0.22,0.98c0,0.46-0.09,0.83-0.28,1.13c-0.19,0.3-0.42,0.54-0.71,0.71
		c-0.28,0.18-0.59,0.3-0.93,0.37C59.54,136.05,59.22,136.09,58.9,136.09z M72.88,131.26c-0.64,0.02-1.29,0.02-1.96,0.02
		s-1.32-0.01-1.96-0.02c-0.64-0.02-1.29-0.03-1.96-0.05c0.05,0.2,0.08,0.36,0.08,0.47c0,0.14-0.02,0.3-0.08,0.49
		c0.21-0.03,0.45-0.06,0.72-0.08c0.27-0.02,0.55-0.04,0.84-0.05c0.29-0.02,0.58-0.03,0.87-0.03c0.29-0.01,0.56-0.01,0.83-0.01
		c0.03,1.04,0.05,2.09,0.05,3.14v2.61c0,0.67-0.01,1.33-0.04,1.98c-0.03,0.65-0.05,1.29-0.08,1.91c0.23-0.02,0.48-0.03,0.74-0.03
		c0.26,0,0.51,0.01,0.74,0.03c-0.03-0.63-0.06-1.27-0.08-1.91c-0.02-0.65-0.04-1.31-0.04-1.98v-2.61c0-1.05,0.02-2.1,0.05-3.14
		c0.26,0,0.54,0,0.83,0.01c0.29,0.01,0.58,0.02,0.87,0.03c0.29,0.02,0.57,0.03,0.84,0.05c0.27,0.02,0.51,0.04,0.72,0.08
		c-0.05-0.18-0.08-0.34-0.08-0.47c0-0.12,0.03-0.28,0.08-0.49C74.17,131.23,73.52,131.25,72.88,131.26z M110.16,135.14
		c-0.36-0.3-0.75-0.52-1.18-0.65c-0.44-0.14-0.88-0.21-1.32-0.21c-0.44,0-0.87,0.07-1.31,0.21c-0.44,0.14-0.84,0.35-1.19,0.65
		c-0.36,0.3-0.64,0.69-0.86,1.17c-0.22,0.48-0.33,1.07-0.33,1.75s0.11,1.27,0.33,1.75c0.22,0.48,0.5,0.87,0.86,1.17
		c0.35,0.3,0.75,0.51,1.19,0.63c0.44,0.12,0.88,0.18,1.31,0.18c0.45,0,0.89-0.06,1.32-0.18c0.43-0.12,0.83-0.33,1.18-0.63
		c0.35-0.3,0.64-0.69,0.86-1.17c0.22-0.48,0.33-1.07,0.33-1.75s-0.11-1.27-0.33-1.75C110.8,135.82,110.52,135.44,110.16,135.14z
		 M109.9,139.29c-0.08,0.39-0.21,0.75-0.39,1.06c-0.18,0.31-0.43,0.55-0.73,0.74c-0.3,0.18-0.68,0.27-1.12,0.27
		c-0.45,0-0.82-0.09-1.12-0.27c-0.3-0.18-0.55-0.43-0.73-0.74s-0.31-0.66-0.39-1.06c-0.08-0.39-0.11-0.8-0.11-1.23
		c0-0.43,0.04-0.84,0.11-1.23c0.08-0.39,0.21-0.75,0.39-1.06c0.18-0.31,0.43-0.55,0.73-0.74c0.3-0.18,0.68-0.27,1.12-0.27
		c0.45,0,0.82,0.09,1.12,0.27c0.3,0.18,0.55,0.43,0.73,0.74c0.18,0.31,0.31,0.66,0.39,1.06c0.08,0.39,0.11,0.8,0.11,1.23
		C110.01,138.49,109.97,138.9,109.9,139.29z M126.41,140.12c-0.26-0.33-0.54-0.67-0.82-1.03s-0.56-0.7-0.82-1.03
		c-0.26-0.33-0.5-0.63-0.71-0.9c-0.21-0.27-0.38-0.49-0.5-0.64c0.29-0.04,0.62-0.12,0.98-0.25c0.36-0.13,0.7-0.3,1.01-0.53
		c0.31-0.23,0.58-0.52,0.8-0.87c0.22-0.35,0.33-0.77,0.33-1.25c0-0.46-0.08-0.84-0.25-1.14c-0.17-0.3-0.4-0.55-0.68-0.74
		c-0.29-0.19-0.63-0.32-1.01-0.4c-0.38-0.08-0.79-0.12-1.22-0.12c-0.29,0-0.58,0.01-0.87,0.04c-0.28,0.03-0.57,0.04-0.87,0.04
		s-0.58-0.01-0.87-0.02c-0.28-0.02-0.57-0.03-0.87-0.05c0.03,0.67,0.06,1.32,0.08,1.97c0.02,0.64,0.04,1.3,0.04,1.97v2.61
		c0,0.67-0.01,1.33-0.04,1.98c-0.03,0.65-0.05,1.29-0.08,1.91c0.23-0.02,0.48-0.03,0.74-0.03c0.26,0,0.51,0.01,0.74,0.03
		c-0.03-0.63-0.06-1.27-0.08-1.91c-0.03-0.65-0.04-1.31-0.04-1.98v-1.11h0.58c0.32,0.33,0.68,0.74,1.07,1.22
		c0.39,0.48,0.77,0.96,1.15,1.45c0.37,0.49,0.72,0.94,1.03,1.37c0.31,0.43,0.54,0.74,0.69,0.96c0.14-0.02,0.29-0.03,0.44-0.03h0.9
		c0.15,0,0.3,0.01,0.46,0.03c-0.14-0.14-0.33-0.35-0.56-0.62C126.92,140.75,126.67,140.45,126.41,140.12z M122.43,136.09
		c-0.2,0-0.39,0-0.55-0.01c-0.17-0.01-0.32-0.03-0.46-0.06v-0.87c0-0.55,0.01-1.09,0.03-1.64c0.02-0.55,0.04-1.1,0.06-1.65
		c0.16-0.02,0.36-0.04,0.59-0.05c0.23-0.01,0.53-0.02,0.88-0.02c0.26,0,0.53,0.03,0.8,0.08c0.27,0.06,0.53,0.16,0.76,0.31
		c0.23,0.15,0.42,0.36,0.57,0.62s0.22,0.58,0.22,0.98c0,0.46-0.09,0.83-0.28,1.13c-0.19,0.3-0.42,0.54-0.71,0.71
		c-0.28,0.18-0.59,0.3-0.93,0.37C123.07,136.05,122.75,136.09,122.43,136.09z M148.86,134.15c-0.28-0.67-0.67-1.24-1.17-1.71
		c-0.5-0.47-1.1-0.82-1.8-1.06c-0.7-0.24-1.47-0.36-2.31-0.36c-0.83,0-1.59,0.12-2.29,0.36c-0.7,0.24-1.3,0.6-1.8,1.06
		c-0.5,0.47-0.89,1.04-1.17,1.71c-0.28,0.67-0.42,1.44-0.42,2.3s0.14,1.63,0.42,2.3c0.28,0.67,0.67,1.24,1.17,1.71
		c0.5,0.47,1.1,0.81,1.8,1.04c0.7,0.23,1.46,0.34,2.29,0.34c0.84,0,1.61-0.11,2.31-0.34c0.7-0.23,1.3-0.57,1.8-1.04
		c0.5-0.47,0.89-1.03,1.17-1.71c0.28-0.67,0.42-1.44,0.42-2.3S149.14,134.82,148.86,134.15z M147.47,138.63
		c-0.21,0.61-0.51,1.12-0.89,1.52c-0.38,0.4-0.83,0.7-1.34,0.89c-0.51,0.19-1.07,0.29-1.66,0.29c-0.59,0-1.14-0.1-1.65-0.29
		c-0.51-0.19-0.96-0.49-1.34-0.89c-0.38-0.4-0.68-0.91-0.89-1.52c-0.21-0.61-0.32-1.34-0.32-2.18s0.11-1.57,0.32-2.18
		c0.21-0.61,0.51-1.12,0.89-1.52c0.38-0.4,0.83-0.7,1.34-0.89c0.51-0.19,1.06-0.29,1.65-0.29c0.6,0,1.15,0.1,1.66,0.29
		c0.51,0.19,0.96,0.49,1.34,0.89c0.38,0.4,0.68,0.91,0.89,1.52c0.21,0.61,0.32,1.34,0.32,2.18S147.68,138.02,147.47,138.63z
		 M133.27,133.18c0.03-0.64,0.05-1.3,0.08-1.97c-0.13,0.02-0.26,0.04-0.38,0.05c-0.12,0.02-0.24,0.02-0.36,0.02
		s-0.24-0.01-0.37-0.02c-0.12-0.02-0.25-0.03-0.38-0.05c0.03,0.67,0.06,1.32,0.08,1.97c0.03,0.64,0.04,1.3,0.04,1.97v2.61
		c0,0.67-0.01,1.33-0.04,1.98c-0.03,0.65-0.05,1.29-0.08,1.91c0.23-0.02,0.48-0.03,0.74-0.03s0.51,0.01,0.74,0.03
		c-0.03-0.63-0.06-1.27-0.08-1.91c-0.02-0.65-0.04-1.31-0.04-1.98v-2.61C133.24,134.48,133.25,133.82,133.27,133.18z M85.23,138.99
		c-0.26-0.59-0.53-1.23-0.83-1.92s-0.59-1.38-0.88-2.08c-0.29-0.7-0.58-1.39-0.87-2.07c-0.28-0.68-0.55-1.32-0.79-1.91h-0.29
		c-0.79,1.81-1.58,3.59-2.35,5.35c-0.78,1.75-1.58,3.51-2.4,5.29c0.17-0.02,0.36-0.03,0.56-0.03s0.39,0.01,0.56,0.03
		c0.13-0.47,0.33-1.06,0.59-1.77c0.02-0.05,0.05-0.13,0.09-0.22c0.37-0.01,0.75-0.01,1.11-0.02c0.47-0.01,0.95-0.01,1.43-0.01
		c0.52,0,1.03,0,1.55,0.01c0.46,0,0.92,0.01,1.37,0.02c0.02,0.04,0.03,0.08,0.05,0.11c0.15,0.36,0.28,0.7,0.4,1.03
		c0.12,0.33,0.22,0.61,0.29,0.84c0.14-0.02,0.28-0.03,0.4-0.03h0.8c0.13,0,0.26,0.01,0.4,0.03c-0.13-0.24-0.3-0.6-0.51-1.06
		C85.72,140.12,85.48,139.59,85.23,138.99z M82.6,138.98c-0.44,0.01-0.88,0.01-1.32,0.01c-0.41,0-0.83-0.01-1.27-0.02
		c-0.38-0.01-0.75-0.01-1.11-0.01c0.78-1.9,2.46-5.9,2.46-5.9s2.17,5.24,2.32,5.61c0.04,0.1,0.08,0.19,0.12,0.29
		C83.4,138.97,83,138.98,82.6,138.98z"/>
	<g>
		<path class="st0" d="M128.95,96.54l-24.96-23.99l7.22-7.22c12.01-12.01,12.01-31.55,0-43.55c-5.82-5.82-13.55-9.02-21.78-9.02
			H78.43c-0.4,0-0.73,0.33-0.73,0.73v81.91L53.93,72.54l7.22-7.22c12.01-12.01,12.01-31.55,0-43.55
			c-5.82-5.82-13.55-9.02-21.78-9.02H28.38c-0.4,0-0.73,0.33-0.73,0.73v83.58c0,0.3,0.18,0.56,0.45,0.67
			c0.09,0.04,0.19,0.06,0.28,0.06c0.19,0,0.38-0.07,0.52-0.21l24.01-24l24.99,24.01c0.14,0.14,0.32,0.2,0.51,0.2
			c0.01,0,0.01,0,0.02,0c0.01,0,0.01,0,0.02,0c0.19,0,0.38-0.07,0.52-0.21l24.01-24l24.99,24.01c0.14,0.14,0.32,0.2,0.51,0.2
			c0.19,0,0.38-0.08,0.53-0.22C129.25,97.28,129.24,96.82,128.95,96.54z M29.11,95.3V14.21h10.26c7.84,0,15.2,3.05,20.75,8.59
			c11.44,11.44,11.44,30.05,0,41.49L29.11,95.3z M79.16,95.3V14.21h10.26c7.84,0,15.2,3.05,20.75,8.59
			c11.44,11.44,11.44,30.05,0,41.49L79.16,95.3z"/>
	</g>
</g>
</svg>
