<?xml version="1.0" encoding="UTF-8" standalone="no"?>
<svg
   xmlns:dc="http://purl.org/dc/elements/1.1/"
   xmlns:cc="http://creativecommons.org/ns#"
   xmlns:rdf="http://www.w3.org/1999/02/22-rdf-syntax-ns#"
   xmlns:svg="http://www.w3.org/2000/svg"
   xmlns="http://www.w3.org/2000/svg"
   xmlns:sodipodi="http://sodipodi.sourceforge.net/DTD/sodipodi-0.dtd"
   xmlns:inkscape="http://www.inkscape.org/namespaces/inkscape"
   version="1.1"
   id="Layer_1"
   x="0px"
   y="0px"
   viewBox="0 0 1082 1178"
   style="enable-background:new 0 0 1082 1178;"
   xml:space="preserve"
   sodipodi:docname="AdobeStock_294377655 [Converted].svg"
   inkscape:version="1.0.1 (3bc2e813f5, 2020-09-07)"><metadata
   id="metadata9"><rdf:RDF><cc:Work
       rdf:about=""><dc:format>image/svg+xml</dc:format><dc:type
         rdf:resource="http://purl.org/dc/dcmitype/StillImage" /></cc:Work></rdf:RDF></metadata><defs
   id="defs7" /><sodipodi:namedview
   pagecolor="#ffffff"
   bordercolor="#666666"
   borderopacity="1"
   objecttolerance="10"
   gridtolerance="10"
   guidetolerance="10"
   inkscape:pageopacity="0"
   inkscape:pageshadow="2"
   inkscape:window-width="1600"
   inkscape:window-height="837"
   id="namedview5"
   showgrid="false"
   inkscape:zoom="0.45670628"
   inkscape:cx="541"
   inkscape:cy="589"
   inkscape:window-x="-8"
   inkscape:window-y="-8"
   inkscape:window-maximized="1"
   inkscape:current-layer="Layer_1" />
<path
   d="M1082.09,1134.19c-21.17-221.28-174.96-403.84-380.96-467.28c114.28-58.37,192.53-177.22,192.53-314.35  C893.65,157.73,735.72-0.2,540.89-0.2S188.13,157.73,188.13,352.56c0,137.13,78.25,255.98,192.53,314.35  c-206.01,63.44-359.8,246-380.96,467.28c-2.24,23.45,16.21,43.73,39.77,43.73h0c20.56,0,37.8-15.61,39.75-36.08  c4.45-46.83,15.93-92.33,34.29-135.74c11.62-27.47,26-53.96,42.75-78.75c16.6-24.58,35.67-47.69,56.68-68.7  c21.01-21.01,44.12-40.08,68.7-56.68c24.79-16.75,51.29-31.13,78.75-42.75c57.13-24.16,117.86-36.42,180.51-36.42  c62.65,0,123.38,12.25,180.51,36.42c27.46,11.62,53.96,26,78.75,42.75c24.58,16.6,47.69,35.67,68.7,56.68  c21.01,21.01,40.08,44.12,56.68,68.7c16.75,24.79,31.13,51.29,42.75,78.75c18.36,43.41,29.84,88.91,34.29,135.74  c1.95,20.47,19.18,36.08,39.75,36.08C1065.88,1177.92,1084.33,1157.64,1082.09,1134.19z M540.89,625.42  c-36.87,0-72.6-7.2-106.19-21.41c-32.48-13.74-61.67-33.42-86.76-58.51c-25.08-25.09-44.77-54.27-58.51-86.76  c-14.21-33.59-21.41-69.31-21.41-106.19s7.2-72.6,21.41-106.19c13.74-32.48,33.42-61.67,58.51-86.76  c25.09-25.09,54.27-44.77,86.76-58.51c33.59-14.21,69.31-21.41,106.19-21.41s72.6,7.2,106.19,21.41  c32.48,13.74,61.67,33.42,86.76,58.51c25.09,25.09,44.77,54.27,58.51,86.76c14.21,33.59,21.41,69.31,21.41,106.19  s-7.2,72.6-21.41,106.19c-13.74,32.48-33.42,61.67-58.51,86.76c-25.09,25.09-54.27,44.77-86.76,58.51  C613.49,618.22,577.76,625.42,540.89,625.42z"
   id="path2"
   style="fill:#ffffff" />
</svg>
