<?xml version="1.0" encoding="UTF-8" standalone="no"?>
<svg
   xmlns:dc="http://purl.org/dc/elements/1.1/"
   xmlns:cc="http://creativecommons.org/ns#"
   xmlns:rdf="http://www.w3.org/1999/02/22-rdf-syntax-ns#"
   xmlns:svg="http://www.w3.org/2000/svg"
   xmlns="http://www.w3.org/2000/svg"
   xmlns:sodipodi="http://sodipodi.sourceforge.net/DTD/sodipodi-0.dtd"
   xmlns:inkscape="http://www.inkscape.org/namespaces/inkscape"
   version="1.1"
   id="Layer_1"
   x="0px"
   y="0px"
   viewBox="0 0 1082.7588 1132.9815"
   xml:space="preserve"
   sodipodi:docname="perfil.svg"
   inkscape:version="1.0.1 (3bc2e813f5, 2020-09-07)"
   width="1082.7588"
   height="1132.9814"><metadata
   id="metadata9"><rdf:RDF><cc:Work
       rdf:about=""><dc:format>image/svg+xml</dc:format><dc:type
         rdf:resource="http://purl.org/dc/dcmitype/StillImage" /></cc:Work></rdf:RDF></metadata><defs
   id="defs7" /><sodipodi:namedview
   pagecolor="#ffffff"
   bordercolor="#666666"
   borderopacity="1"
   objecttolerance="10"
   gridtolerance="10"
   guidetolerance="10"
   inkscape:pageopacity="0"
   inkscape:pageshadow="2"
   inkscape:window-width="1600"
   inkscape:window-height="837"
   id="namedview5"
   showgrid="false"
   inkscape:zoom="0.45670628"
   inkscape:cx="541.48444"
   inkscape:cy="589.2"
   inkscape:window-x="-8"
   inkscape:window-y="-8"
   inkscape:window-maximized="1"
   inkscape:current-layer="Layer_1"
   inkscape:document-rotation="0" />
<path
   d="m 1082.5744,1090.927 c -21.17,-212.80194 -174.95996,-388.36733 -380.95996,-449.37669 114.28,-56.1336 192.53,-170.42998 192.53,-302.30598 C 894.13444,151.87906 736.20444,0 541.37444,0 c -194.83,0 -352.76,151.87906 -352.76,339.24433 0,131.876 78.25,246.17238 192.53,302.30598 -206.01,61.00936 -359.800005,236.57475 -380.96000485,449.37669 -2.24000005,22.5514 16.20999985,42.0545 39.76999985,42.0545 v 0 c 20.56,0 37.8,-15.012 39.75,-34.6977 4.45,-45.0358 15.93,-88.7924 34.290005,-130.53922 11.62,-26.41752 26,-51.89258 42.75,-75.73278 16.6,-23.63823 35.67,-45.8628 56.68,-66.06782 21.01,-20.20502 44.12,-38.54438 68.7,-54.50836 24.79,-16.10824 51.29,-29.93729 78.75,-41.11208 57.13,-23.23433 117.86,-35.0246 180.51,-35.0246 62.65,0 123.38,11.78066 180.51,35.0246 27.46,11.17479 53.96,25.00384 78.75,41.11208 24.58,15.96398 47.69,34.30334 68.7,54.50836 21.01,20.20502 40.08,42.42959 56.68,66.06782 16.75,23.8402 31.13,49.32488 42.75,75.73278 18.36,41.74682 29.84,85.50342 34.28996,130.53922 1.95,19.6857 19.18,34.6977 39.75,34.6977 23.55,0 42,-19.5031 39.76,-42.0545 z M 541.37444,601.64997 c -36.87,0 -72.6,-6.92415 -106.19,-20.5897 -32.48,-13.21357 -61.67,-32.13954 -86.76,-56.26825 -25.08,-24.12869 -44.77,-52.19069 -58.51,-83.43587 -14.21,-32.30303 -21.41,-66.65445 -21.41,-102.12143 0,-35.46698 7.2,-69.8184 21.41,-102.12143 13.74,-31.23556 33.42,-59.30718 58.51,-83.43587 25.09,-24.12871 54.27,-43.05468 86.76,-56.26825 33.59,-13.665558 69.31,-20.589697 106.19,-20.589697 36.88,0 72.6,6.924139 106.19,20.589697 32.48,13.21357 61.67,32.13954 86.76,56.26825 25.09,24.12869 44.77,52.19069 58.51,83.43587 14.21,32.30303 21.41,66.65445 21.41,102.12143 0,35.46698 -7.2,69.8184 -21.41,102.12143 -13.74,31.23556 -33.42,59.30718 -58.51,83.43587 -25.09,24.12871 -54.27,43.05468 -86.76,56.26825 -33.59,13.66555 -69.32,20.5897 -106.19,20.5897 z"
   id="path2"
   style="fill:#ffffff;stroke-width:0.980655" />
</svg>
