<?xml version="1.0" encoding="UTF-8" standalone="no"?>
<svg
   xmlns:dc="http://purl.org/dc/elements/1.1/"
   xmlns:cc="http://creativecommons.org/ns#"
   xmlns:rdf="http://www.w3.org/1999/02/22-rdf-syntax-ns#"
   xmlns:svg="http://www.w3.org/2000/svg"
   xmlns="http://www.w3.org/2000/svg"
   xmlns:sodipodi="http://sodipodi.sourceforge.net/DTD/sodipodi-0.dtd"
   xmlns:inkscape="http://www.inkscape.org/namespaces/inkscape"
   version="1.1"
   id="Layer_1"
   x="0px"
   y="0px"
   viewBox="0 0 141.74001 11.189999"
   xml:space="preserve"
   sodipodi:docname="roberta-rio-logo-internal.svg"
   width="141.74001"
   height="11.19"
   inkscape:version="1.0.1 (3bc2e813f5, 2020-09-07)"><metadata
   id="metadata17"><rdf:RDF><cc:Work
       rdf:about=""><dc:format>image/svg+xml</dc:format><dc:type
         rdf:resource="http://purl.org/dc/dcmitype/StillImage" /><dc:title></dc:title></cc:Work></rdf:RDF></metadata><defs
   id="defs15" /><sodipodi:namedview
   pagecolor="#ffffff"
   bordercolor="#666666"
   borderopacity="1"
   objecttolerance="10"
   gridtolerance="10"
   guidetolerance="10"
   inkscape:pageopacity="0"
   inkscape:pageshadow="2"
   inkscape:window-width="1366"
   inkscape:window-height="705"
   id="namedview13"
   showgrid="false"
   inkscape:zoom="3.5695329"
   inkscape:cx="70.924996"
   inkscape:cy="0.73974091"
   inkscape:window-x="1592"
   inkscape:window-y="-8"
   inkscape:window-maximized="1"
   inkscape:current-layer="g10"
   inkscape:document-rotation="0" />
<style
   type="text/css"
   id="style2">
	.st0{fill:#FFFFFF;}
</style>
<g
   id="g10"
   style="fill:#aa0000"
   transform="translate(-7.54,-130.65)">
	<path
   class="st0"
   d="m 100.44,130.65 c -0.13,0.02 -0.25,0.04 -0.36,0.05 -0.11,0.02 -0.22,0.02 -0.33,0.02 -0.11,0 -0.22,-0.01 -0.33,-0.02 -0.11,-0.02 -0.23,-0.03 -0.35,-0.05 0.01,0.24 0.06,5.14 0.06,5.14 H 99.1 c -0.44,-1.01 -1.22,-1.52 -2.34,-1.52 -0.39,0 -0.79,0.08 -1.18,0.24 -0.39,0.16 -0.74,0.39 -1.05,0.71 -0.31,0.32 -0.56,0.72 -0.75,1.19 -0.19,0.48 -0.29,1.04 -0.29,1.69 0,0.66 0.09,1.22 0.27,1.69 0.18,0.47 0.41,0.86 0.7,1.15 0.29,0.3 0.62,0.51 0.99,0.65 0.37,0.13 0.75,0.2 1.13,0.2 0.38,0 0.7,-0.05 0.99,-0.15 0.29,-0.1 0.53,-0.23 0.74,-0.39 0.21,-0.16 0.38,-0.34 0.52,-0.52 0.14,-0.18 0.24,-0.36 0.33,-0.52 h 0.03 l -0.04,1.44 c 0.2,-0.02 0.39,-0.03 0.58,-0.03 0.19,0 0.39,0.01 0.59,0.03 -0.01,-0.59 -0.02,-1.16 -0.03,-1.72 -0.01,-0.56 -0.01,-1.18 -0.01,-1.88 0,-0.65 0,-1.36 0.01,-2.14 -0.01,-0.79 0.12,-4.93 0.15,-5.26 z m -1.37,8.47 c -0.09,0.41 -0.22,0.77 -0.41,1.09 -0.19,0.32 -0.42,0.58 -0.71,0.77 -0.28,0.2 -0.62,0.3 -1.02,0.3 -0.24,0 -0.49,-0.04 -0.74,-0.14 -0.25,-0.09 -0.48,-0.26 -0.68,-0.49 -0.2,-0.24 -0.36,-0.55 -0.49,-0.95 -0.13,-0.39 -0.19,-0.9 -0.19,-1.5 0,-0.46 0.04,-0.88 0.13,-1.28 0.09,-0.4 0.22,-0.75 0.39,-1.05 0.18,-0.3 0.4,-0.53 0.67,-0.7 0.27,-0.17 0.58,-0.25 0.95,-0.25 0.73,0 1.28,0.26 1.65,0.77 0.38,0.51 0.56,1.25 0.56,2.23 0.02,0.39 -0.03,0.8 -0.11,1.2 z m -85.16,1 c -0.26,-0.33 -0.54,-0.67 -0.82,-1.03 -0.28,-0.36 -0.56,-0.7 -0.82,-1.03 -0.26,-0.33 -0.5,-0.63 -0.71,-0.9 -0.21,-0.27 -0.38,-0.49 -0.5,-0.64 0.29,-0.04 0.62,-0.12 0.98,-0.25 0.36,-0.13 0.7,-0.3 1.01,-0.53 0.31,-0.23 0.58,-0.52 0.8,-0.87 0.22,-0.35 0.33,-0.77 0.33,-1.25 0,-0.46 -0.08,-0.84 -0.25,-1.14 -0.17,-0.3 -0.4,-0.55 -0.68,-0.74 -0.29,-0.19 -0.63,-0.32 -1.01,-0.4 -0.38,-0.08 -0.79,-0.12 -1.22,-0.12 -0.29,0 -0.58,0.01 -0.87,0.04 -0.28,0.03 -0.57,0.04 -0.87,0.04 -0.29,0 -0.58,-0.01 -0.87,-0.02 -0.28,-0.02 -0.57,-0.03 -0.87,-0.05 0.03,0.67 0.06,1.32 0.08,1.97 0.03,0.64 0.04,1.3 0.04,1.97 v 2.61 c 0,0.67 -0.01,1.33 -0.04,1.98 -0.03,0.65 -0.05,1.29 -0.08,1.91 0.23,-0.02 0.48,-0.03 0.74,-0.03 0.26,0 0.51,0.01 0.74,0.03 C 8.99,141.04 8.96,140.4 8.94,139.76 8.92,139.11 8.9,138.45 8.9,137.78 v -1.11 h 0.58 c 0.32,0.33 0.68,0.74 1.07,1.22 0.39,0.48 0.77,0.96 1.15,1.45 0.37,0.49 0.72,0.94 1.03,1.37 0.31,0.43 0.54,0.74 0.69,0.96 0.14,-0.02 0.29,-0.03 0.44,-0.03 h 0.9 c 0.15,0 0.3,0.01 0.46,0.03 -0.14,-0.14 -0.33,-0.35 -0.56,-0.62 -0.24,-0.3 -0.49,-0.6 -0.75,-0.93 z m -3.98,-4.03 c -0.2,0 -0.39,0 -0.55,-0.01 -0.17,-0.01 -0.32,-0.03 -0.46,-0.06 v -0.87 c 0,-0.55 0.01,-1.09 0.03,-1.64 0.02,-0.55 0.04,-1.1 0.06,-1.65 0.16,-0.02 0.36,-0.04 0.59,-0.05 0.23,-0.01 0.53,-0.02 0.88,-0.02 0.26,0 0.53,0.03 0.8,0.08 0.27,0.06 0.53,0.16 0.76,0.31 0.23,0.15 0.42,0.36 0.57,0.62 0.15,0.26 0.22,0.58 0.22,0.98 0,0.46 -0.09,0.83 -0.28,1.13 -0.19,0.3 -0.42,0.54 -0.71,0.71 -0.28,0.18 -0.59,0.3 -0.93,0.37 -0.34,0.06 -0.67,0.1 -0.98,0.1 z m 18.5,-3.65 c -0.5,-0.47 -1.1,-0.82 -1.8,-1.06 -0.7,-0.24 -1.47,-0.36 -2.31,-0.36 -0.83,0 -1.59,0.12 -2.29,0.36 -0.7,0.24 -1.3,0.6 -1.8,1.06 -0.5,0.47 -0.89,1.04 -1.17,1.71 -0.28,0.67 -0.42,1.44 -0.42,2.3 0,0.86 0.14,1.63 0.42,2.3 0.28,0.67 0.67,1.24 1.17,1.71 0.5,0.47 1.1,0.81 1.8,1.04 0.7,0.23 1.46,0.34 2.29,0.34 0.84,0 1.61,-0.11 2.31,-0.34 0.7,-0.23 1.3,-0.57 1.8,-1.04 0.5,-0.47 0.89,-1.03 1.17,-1.71 0.28,-0.67 0.42,-1.44 0.42,-2.3 0,-0.86 -0.14,-1.63 -0.42,-2.3 -0.28,-0.67 -0.67,-1.24 -1.17,-1.71 z m -0.22,6.19 c -0.21,0.61 -0.51,1.12 -0.89,1.52 -0.38,0.4 -0.83,0.7 -1.34,0.89 -0.51,0.19 -1.07,0.29 -1.66,0.29 -0.59,0 -1.14,-0.1 -1.65,-0.29 -0.51,-0.19 -0.96,-0.49 -1.34,-0.89 -0.38,-0.4 -0.68,-0.91 -0.89,-1.52 -0.21,-0.61 -0.32,-1.34 -0.32,-2.18 0,-0.84 0.11,-1.57 0.32,-2.18 0.21,-0.61 0.51,-1.12 0.89,-1.52 0.38,-0.4 0.83,-0.7 1.34,-0.89 0.51,-0.19 1.06,-0.29 1.65,-0.29 0.6,0 1.15,0.1 1.66,0.29 0.51,0.19 0.96,0.49 1.34,0.89 0.38,0.4 0.68,0.91 0.89,1.52 0.21,0.61 0.32,1.34 0.32,2.18 0,0.84 -0.11,1.57 -0.32,2.18 z m 12.36,-1.89 c -0.52,-0.39 -1.23,-0.61 -2.13,-0.65 v -0.03 c 0.76,-0.17 1.37,-0.47 1.85,-0.9 0.47,-0.43 0.71,-1.01 0.71,-1.76 0,-0.43 -0.09,-0.78 -0.26,-1.06 -0.17,-0.28 -0.41,-0.51 -0.7,-0.68 -0.29,-0.17 -0.63,-0.28 -1.02,-0.35 -0.39,-0.07 -0.8,-0.1 -1.23,-0.1 -0.26,0 -0.53,0.01 -0.8,0.04 -0.27,0.03 -0.54,0.04 -0.81,0.04 -0.26,0 -0.53,-0.01 -0.8,-0.02 -0.27,-0.02 -0.54,-0.03 -0.8,-0.05 0.03,0.65 0.06,1.3 0.08,1.94 0.02,0.65 0.04,1.31 0.04,1.98 v 2.61 c 0,0.67 -0.01,1.32 -0.04,1.97 -0.03,0.64 -0.05,1.29 -0.08,1.94 0.24,-0.02 0.49,-0.03 0.74,-0.03 h 0.74 c 0.24,0 0.49,0.01 0.74,0.02 0.25,0.01 0.49,0.02 0.74,0.02 0.45,0 0.89,-0.05 1.34,-0.14 0.45,-0.1 0.86,-0.26 1.24,-0.5 0.37,-0.24 0.68,-0.55 0.91,-0.93 0.23,-0.38 0.35,-0.86 0.35,-1.43 -0.03,-0.9 -0.29,-1.54 -0.81,-1.93 z m -4.64,-2.01 c 0,-0.49 0.01,-0.97 0.03,-1.44 0.02,-0.48 0.04,-0.96 0.06,-1.44 0.14,-0.02 0.3,-0.04 0.49,-0.05 0.18,-0.01 0.41,-0.02 0.67,-0.02 0.29,0 0.59,0.02 0.88,0.07 0.29,0.05 0.56,0.14 0.79,0.27 0.23,0.14 0.43,0.33 0.58,0.58 0.15,0.25 0.23,0.58 0.23,0.99 0,0.43 -0.08,0.78 -0.25,1.06 -0.17,0.28 -0.39,0.5 -0.66,0.67 -0.27,0.17 -0.59,0.29 -0.93,0.36 -0.35,0.07 -0.7,0.11 -1.06,0.11 h -0.82 v -1.16 z m 3.83,4.93 c -0.13,0.32 -0.31,0.59 -0.53,0.8 -0.22,0.22 -0.48,0.38 -0.78,0.49 -0.3,0.11 -0.61,0.17 -0.93,0.17 -0.27,0 -0.54,-0.01 -0.8,-0.02 -0.26,-0.02 -0.49,-0.03 -0.68,-0.05 -0.02,-0.52 -0.04,-1.03 -0.06,-1.53 -0.02,-0.51 -0.03,-1.02 -0.03,-1.53 v -1.55 h 0.68 c 0.51,0 0.96,0.03 1.37,0.09 0.41,0.06 0.76,0.17 1.06,0.33 0.29,0.16 0.52,0.38 0.68,0.65 0.16,0.27 0.24,0.64 0.24,1.07 -0.03,0.4 -0.09,0.76 -0.22,1.08 z m 12.12,1.12 c -0.24,0.05 -0.53,0.09 -0.86,0.11 -0.33,0.02 -0.68,0.04 -1.05,0.06 -0.37,0.02 -0.75,0.02 -1.13,0.02 h -1.06 c -0.01,-0.19 -0.02,-0.48 -0.02,-0.85 -0.01,-0.37 -0.01,-0.85 -0.01,-1.43 v -1.5 c 0,-0.16 0,-0.3 0.01,-0.4 0.01,-0.11 0.01,-0.21 0.01,-0.3 0.18,0 0.43,0 0.74,0.01 0.31,0.01 0.64,0.01 0.99,0.02 0.35,0.01 0.7,0.02 1.05,0.04 0.35,0.02 0.66,0.05 0.92,0.08 -0.03,-0.15 -0.05,-0.3 -0.05,-0.46 0,-0.16 0.02,-0.32 0.05,-0.47 -0.22,0.02 -0.46,0.04 -0.71,0.05 -0.25,0.02 -0.52,0.03 -0.81,0.05 -0.29,0.02 -0.62,0.03 -0.97,0.04 -0.35,0.01 -0.75,0.02 -1.2,0.02 0,-0.19 0,-0.48 -0.01,-0.85 -0.01,-0.37 -0.01,-0.76 -0.01,-1.15 0,-0.37 0.01,-0.71 0.02,-1 0.01,-0.29 0.03,-0.6 0.04,-0.93 0.5,0 0.92,0.01 1.28,0.02 0.36,0.01 0.68,0.03 0.98,0.05 0.3,0.02 0.58,0.04 0.85,0.06 0.27,0.02 0.56,0.04 0.89,0.06 -0.03,-0.15 -0.05,-0.3 -0.05,-0.46 0,-0.15 0.02,-0.3 0.05,-0.46 -0.46,0.02 -0.91,0.04 -1.35,0.05 -0.45,0.02 -0.9,0.02 -1.35,0.02 -0.46,0 -0.91,-0.01 -1.36,-0.02 -0.45,-0.02 -0.9,-0.03 -1.36,-0.05 0.03,0.65 0.06,1.3 0.08,1.94 0.02,0.65 0.04,1.31 0.04,1.98 v 2.61 c 0,0.67 -0.01,1.32 -0.04,1.97 -0.03,0.64 -0.05,1.29 -0.08,1.94 0.47,-0.02 0.93,-0.03 1.38,-0.03 h 2.76 c 0.45,0 0.9,0.01 1.36,0.03 -0.03,-0.1 -0.05,-0.23 -0.05,-0.39 0,-0.07 0,-0.15 0.01,-0.24 -0.01,-0.09 0,-0.17 0.02,-0.24 z m 11,-0.66 c -0.26,-0.33 -0.54,-0.67 -0.82,-1.03 -0.28,-0.36 -0.56,-0.7 -0.82,-1.03 -0.26,-0.33 -0.5,-0.63 -0.71,-0.9 -0.21,-0.27 -0.38,-0.49 -0.5,-0.64 0.29,-0.04 0.62,-0.12 0.98,-0.25 0.36,-0.13 0.7,-0.3 1.01,-0.53 0.31,-0.23 0.58,-0.52 0.8,-0.87 0.22,-0.35 0.33,-0.77 0.33,-1.25 0,-0.46 -0.08,-0.84 -0.25,-1.14 -0.17,-0.3 -0.4,-0.55 -0.68,-0.74 -0.29,-0.19 -0.63,-0.32 -1.01,-0.4 -0.38,-0.08 -0.79,-0.12 -1.22,-0.12 -0.29,0 -0.58,0.01 -0.87,0.04 -0.28,0.03 -0.57,0.04 -0.87,0.04 -0.29,0 -0.58,-0.01 -0.87,-0.02 -0.28,-0.02 -0.57,-0.03 -0.87,-0.05 0.03,0.67 0.06,1.32 0.08,1.97 0.02,0.64 0.04,1.3 0.04,1.97 v 2.61 c 0,0.67 -0.01,1.33 -0.04,1.98 -0.03,0.65 -0.05,1.29 -0.08,1.91 0.23,-0.02 0.48,-0.03 0.74,-0.03 0.26,0 0.51,0.01 0.74,0.03 -0.03,-0.63 -0.06,-1.27 -0.08,-1.91 -0.03,-0.65 -0.04,-1.31 -0.04,-1.98 v -1.11 h 0.58 c 0.32,0.33 0.68,0.74 1.07,1.22 0.39,0.48 0.77,0.96 1.15,1.45 0.37,0.49 0.72,0.94 1.03,1.37 0.31,0.43 0.54,0.74 0.69,0.96 0.14,-0.02 0.29,-0.03 0.44,-0.03 h 0.9 c 0.15,0 0.3,0.01 0.46,0.03 -0.14,-0.14 -0.33,-0.35 -0.56,-0.62 -0.24,-0.3 -0.48,-0.6 -0.75,-0.93 z m -3.98,-4.03 c -0.2,0 -0.39,0 -0.55,-0.01 -0.17,-0.01 -0.32,-0.03 -0.46,-0.06 v -0.87 c 0,-0.55 0.01,-1.09 0.03,-1.64 0.02,-0.55 0.04,-1.1 0.06,-1.65 0.16,-0.02 0.36,-0.04 0.59,-0.05 0.23,-0.01 0.53,-0.02 0.88,-0.02 0.26,0 0.53,0.03 0.8,0.08 0.27,0.06 0.53,0.16 0.76,0.31 0.23,0.15 0.42,0.36 0.57,0.62 0.15,0.26 0.22,0.58 0.22,0.98 0,0.46 -0.09,0.83 -0.28,1.13 -0.19,0.3 -0.42,0.54 -0.71,0.71 -0.28,0.18 -0.59,0.3 -0.93,0.37 -0.34,0.06 -0.66,0.1 -0.98,0.1 z m 13.98,-4.83 c -0.64,0.02 -1.29,0.02 -1.96,0.02 -0.67,0 -1.32,-0.01 -1.96,-0.02 -0.64,-0.02 -1.29,-0.03 -1.96,-0.05 0.05,0.2 0.08,0.36 0.08,0.47 0,0.14 -0.02,0.3 -0.08,0.49 0.21,-0.03 0.45,-0.06 0.72,-0.08 0.27,-0.02 0.55,-0.04 0.84,-0.05 0.29,-0.02 0.58,-0.03 0.87,-0.03 0.29,-0.01 0.56,-0.01 0.83,-0.01 0.03,1.04 0.05,2.09 0.05,3.14 v 2.61 c 0,0.67 -0.01,1.33 -0.04,1.98 -0.03,0.65 -0.05,1.29 -0.08,1.91 0.23,-0.02 0.48,-0.03 0.74,-0.03 0.26,0 0.51,0.01 0.74,0.03 -0.03,-0.63 -0.06,-1.27 -0.08,-1.91 -0.02,-0.65 -0.04,-1.31 -0.04,-1.98 v -2.61 c 0,-1.05 0.02,-2.1 0.05,-3.14 0.26,0 0.54,0 0.83,0.01 0.29,0.01 0.58,0.02 0.87,0.03 0.29,0.02 0.57,0.03 0.84,0.05 0.27,0.02 0.51,0.04 0.72,0.08 -0.05,-0.18 -0.08,-0.34 -0.08,-0.47 0,-0.12 0.03,-0.28 0.08,-0.49 -0.69,0.02 -1.34,0.04 -1.98,0.05 z m 37.28,3.88 c -0.36,-0.3 -0.75,-0.52 -1.18,-0.65 -0.44,-0.14 -0.88,-0.21 -1.32,-0.21 -0.44,0 -0.87,0.07 -1.31,0.21 -0.44,0.14 -0.84,0.35 -1.19,0.65 -0.36,0.3 -0.64,0.69 -0.86,1.17 -0.22,0.48 -0.33,1.07 -0.33,1.75 0,0.68 0.11,1.27 0.33,1.75 0.22,0.48 0.5,0.87 0.86,1.17 0.35,0.3 0.75,0.51 1.19,0.63 0.44,0.12 0.88,0.18 1.31,0.18 0.45,0 0.89,-0.06 1.32,-0.18 0.43,-0.12 0.83,-0.33 1.18,-0.63 0.35,-0.3 0.64,-0.69 0.86,-1.17 0.22,-0.48 0.33,-1.07 0.33,-1.75 0,-0.68 -0.11,-1.27 -0.33,-1.75 -0.22,-0.49 -0.5,-0.87 -0.86,-1.17 z m -0.26,4.15 c -0.08,0.39 -0.21,0.75 -0.39,1.06 -0.18,0.31 -0.43,0.55 -0.73,0.74 -0.3,0.18 -0.68,0.27 -1.12,0.27 -0.45,0 -0.82,-0.09 -1.12,-0.27 -0.3,-0.18 -0.55,-0.43 -0.73,-0.74 -0.18,-0.31 -0.31,-0.66 -0.39,-1.06 -0.08,-0.39 -0.11,-0.8 -0.11,-1.23 0,-0.43 0.04,-0.84 0.11,-1.23 0.08,-0.39 0.21,-0.75 0.39,-1.06 0.18,-0.31 0.43,-0.55 0.73,-0.74 0.3,-0.18 0.68,-0.27 1.12,-0.27 0.45,0 0.82,0.09 1.12,0.27 0.3,0.18 0.55,0.43 0.73,0.74 0.18,0.31 0.31,0.66 0.39,1.06 0.08,0.39 0.11,0.8 0.11,1.23 0,0.43 -0.04,0.84 -0.11,1.23 z m 16.51,0.83 c -0.26,-0.33 -0.54,-0.67 -0.82,-1.03 -0.28,-0.36 -0.56,-0.7 -0.82,-1.03 -0.26,-0.33 -0.5,-0.63 -0.71,-0.9 -0.21,-0.27 -0.38,-0.49 -0.5,-0.64 0.29,-0.04 0.62,-0.12 0.98,-0.25 0.36,-0.13 0.7,-0.3 1.01,-0.53 0.31,-0.23 0.58,-0.52 0.8,-0.87 0.22,-0.35 0.33,-0.77 0.33,-1.25 0,-0.46 -0.08,-0.84 -0.25,-1.14 -0.17,-0.3 -0.4,-0.55 -0.68,-0.74 -0.29,-0.19 -0.63,-0.32 -1.01,-0.4 -0.38,-0.08 -0.79,-0.12 -1.22,-0.12 -0.29,0 -0.58,0.01 -0.87,0.04 -0.28,0.03 -0.57,0.04 -0.87,0.04 -0.3,0 -0.58,-0.01 -0.87,-0.02 -0.28,-0.02 -0.57,-0.03 -0.87,-0.05 0.03,0.67 0.06,1.32 0.08,1.97 0.02,0.64 0.04,1.3 0.04,1.97 v 2.61 c 0,0.67 -0.01,1.33 -0.04,1.98 -0.03,0.65 -0.05,1.29 -0.08,1.91 0.23,-0.02 0.48,-0.03 0.74,-0.03 0.26,0 0.51,0.01 0.74,0.03 -0.03,-0.63 -0.06,-1.27 -0.08,-1.91 -0.03,-0.65 -0.04,-1.31 -0.04,-1.98 v -1.11 h 0.58 c 0.32,0.33 0.68,0.74 1.07,1.22 0.39,0.48 0.77,0.96 1.15,1.45 0.37,0.49 0.72,0.94 1.03,1.37 0.31,0.43 0.54,0.74 0.69,0.96 0.14,-0.02 0.29,-0.03 0.44,-0.03 h 0.9 c 0.15,0 0.3,0.01 0.46,0.03 -0.14,-0.14 -0.33,-0.35 -0.56,-0.62 -0.24,-0.3 -0.49,-0.6 -0.75,-0.93 z m -3.98,-4.03 c -0.2,0 -0.39,0 -0.55,-0.01 -0.17,-0.01 -0.32,-0.03 -0.46,-0.06 v -0.87 c 0,-0.55 0.01,-1.09 0.03,-1.64 0.02,-0.55 0.04,-1.1 0.06,-1.65 0.16,-0.02 0.36,-0.04 0.59,-0.05 0.23,-0.01 0.53,-0.02 0.88,-0.02 0.26,0 0.53,0.03 0.8,0.08 0.27,0.06 0.53,0.16 0.76,0.31 0.23,0.15 0.42,0.36 0.57,0.62 0.15,0.26 0.22,0.58 0.22,0.98 0,0.46 -0.09,0.83 -0.28,1.13 -0.19,0.3 -0.42,0.54 -0.71,0.71 -0.28,0.18 -0.59,0.3 -0.93,0.37 -0.34,0.06 -0.66,0.1 -0.98,0.1 z m 26.43,-1.94 c -0.28,-0.67 -0.67,-1.24 -1.17,-1.71 -0.5,-0.47 -1.1,-0.82 -1.8,-1.06 -0.7,-0.24 -1.47,-0.36 -2.31,-0.36 -0.83,0 -1.59,0.12 -2.29,0.36 -0.7,0.24 -1.3,0.6 -1.8,1.06 -0.5,0.47 -0.89,1.04 -1.17,1.71 -0.28,0.67 -0.42,1.44 -0.42,2.3 0,0.86 0.14,1.63 0.42,2.3 0.28,0.67 0.67,1.24 1.17,1.71 0.5,0.47 1.1,0.81 1.8,1.04 0.7,0.23 1.46,0.34 2.29,0.34 0.84,0 1.61,-0.11 2.31,-0.34 0.7,-0.23 1.3,-0.57 1.8,-1.04 0.5,-0.47 0.89,-1.03 1.17,-1.71 0.28,-0.67 0.42,-1.44 0.42,-2.3 0,-0.86 -0.14,-1.63 -0.42,-2.3 z m -1.39,4.48 c -0.21,0.61 -0.51,1.12 -0.89,1.52 -0.38,0.4 -0.83,0.7 -1.34,0.89 -0.51,0.19 -1.07,0.29 -1.66,0.29 -0.59,0 -1.14,-0.1 -1.65,-0.29 -0.51,-0.19 -0.96,-0.49 -1.34,-0.89 -0.38,-0.4 -0.68,-0.91 -0.89,-1.52 -0.21,-0.61 -0.32,-1.34 -0.32,-2.18 0,-0.84 0.11,-1.57 0.32,-2.18 0.21,-0.61 0.51,-1.12 0.89,-1.52 0.38,-0.4 0.83,-0.7 1.34,-0.89 0.51,-0.19 1.06,-0.29 1.65,-0.29 0.6,0 1.15,0.1 1.66,0.29 0.51,0.19 0.96,0.49 1.34,0.89 0.38,0.4 0.68,0.91 0.89,1.52 0.21,0.61 0.32,1.34 0.32,2.18 0,0.84 -0.11,1.57 -0.32,2.18 z m -14.2,-5.45 c 0.03,-0.64 0.05,-1.3 0.08,-1.97 -0.13,0.02 -0.26,0.04 -0.38,0.05 -0.12,0.02 -0.24,0.02 -0.36,0.02 -0.12,0 -0.24,-0.01 -0.37,-0.02 -0.12,-0.02 -0.25,-0.03 -0.38,-0.05 0.03,0.67 0.06,1.32 0.08,1.97 0.03,0.64 0.04,1.3 0.04,1.97 v 2.61 c 0,0.67 -0.01,1.33 -0.04,1.98 -0.03,0.65 -0.05,1.29 -0.08,1.91 0.23,-0.02 0.48,-0.03 0.74,-0.03 0.26,0 0.51,0.01 0.74,0.03 -0.03,-0.63 -0.06,-1.27 -0.08,-1.91 -0.02,-0.65 -0.04,-1.31 -0.04,-1.98 v -2.61 c 0.02,-0.67 0.03,-1.33 0.05,-1.97 z m -48.04,5.81 c -0.26,-0.59 -0.53,-1.23 -0.83,-1.92 -0.3,-0.69 -0.59,-1.38 -0.88,-2.08 -0.29,-0.7 -0.58,-1.39 -0.87,-2.07 -0.28,-0.68 -0.55,-1.32 -0.79,-1.91 h -0.29 c -0.79,1.81 -1.58,3.59 -2.35,5.35 -0.78,1.75 -1.58,3.51 -2.4,5.29 0.17,-0.02 0.36,-0.03 0.56,-0.03 0.2,0 0.39,0.01 0.56,0.03 0.13,-0.47 0.33,-1.06 0.59,-1.77 0.02,-0.05 0.05,-0.13 0.09,-0.22 0.37,-0.01 0.75,-0.01 1.11,-0.02 0.47,-0.01 0.95,-0.01 1.43,-0.01 0.52,0 1.03,0 1.55,0.01 0.46,0 0.92,0.01 1.37,0.02 0.02,0.04 0.03,0.08 0.05,0.11 0.15,0.36 0.28,0.7 0.4,1.03 0.12,0.33 0.22,0.61 0.29,0.84 0.14,-0.02 0.28,-0.03 0.4,-0.03 h 0.8 c 0.13,0 0.26,0.01 0.4,0.03 -0.13,-0.24 -0.3,-0.6 -0.51,-1.06 -0.19,-0.46 -0.43,-0.99 -0.68,-1.59 z m -2.63,-0.01 c -0.44,0.01 -0.88,0.01 -1.32,0.01 -0.41,0 -0.83,-0.01 -1.27,-0.02 -0.38,-0.01 -0.75,-0.01 -1.11,-0.01 0.78,-1.9 2.46,-5.9 2.46,-5.9 0,0 2.17,5.24 2.32,5.61 0.04,0.1 0.08,0.19 0.12,0.29 -0.4,0.01 -0.8,0.02 -1.2,0.02 z"
   id="path4"
   style="fill:#000000" />
	<g
   id="g8"
   style="fill:#aa0000">
		
	</g>
</g>
</svg>
