<?xml version="1.0" encoding="UTF-8" standalone="no"?>
<svg
   xmlns:dc="http://purl.org/dc/elements/1.1/"
   xmlns:cc="http://creativecommons.org/ns#"
   xmlns:rdf="http://www.w3.org/1999/02/22-rdf-syntax-ns#"
   xmlns:svg="http://www.w3.org/2000/svg"
   xmlns="http://www.w3.org/2000/svg"
   xmlns:sodipodi="http://sodipodi.sourceforge.net/DTD/sodipodi-0.dtd"
   xmlns:inkscape="http://www.inkscape.org/namespaces/inkscape"
   version="1.1"
   id="Layer_1"
   x="0px"
   y="0px"
   viewBox="0 0 101.52962 85.04"
   xml:space="preserve"
   sodipodi:docname="rr-logo-comp.svg"
   width="101.52962"
   height="85.040001"
   inkscape:version="1.0.1 (3bc2e813f5, 2020-09-07)"><metadata
   id="metadata17"><rdf:RDF><cc:Work
       rdf:about=""><dc:format>image/svg+xml</dc:format><dc:type
         rdf:resource="http://purl.org/dc/dcmitype/StillImage" /><dc:title></dc:title></cc:Work></rdf:RDF></metadata><defs
   id="defs15" /><sodipodi:namedview
   pagecolor="#ffffff"
   bordercolor="#666666"
   borderopacity="1"
   objecttolerance="10"
   gridtolerance="10"
   guidetolerance="10"
   inkscape:pageopacity="0"
   inkscape:pageshadow="2"
   inkscape:window-width="1600"
   inkscape:window-height="837"
   id="namedview13"
   showgrid="false"
   inkscape:zoom="3.5695329"
   inkscape:cx="50.814996"
   inkscape:cy="62.610001"
   inkscape:window-x="-8"
   inkscape:window-y="-8"
   inkscape:window-maximized="1"
   inkscape:current-layer="g10" />
<style
   type="text/css"
   id="style2">
	.st0{fill:#FFFFFF;}
</style>
<g
   id="g10"
   style="fill:#000080"
   transform="translate(-27.65,-12.75)">
	
	<g
   id="g8"
   style="fill:#b0d4c0;fill-opacity:1">
		<path
   class="st0"
   d="m 128.95,96.54 -24.96,-23.99 7.22,-7.22 c 12.01,-12.01 12.01,-31.55 0,-43.55 -5.82,-5.82 -13.55,-9.02 -21.78,-9.02 h -11 c -0.4,0 -0.73,0.33 -0.73,0.73 V 95.4 L 53.93,72.54 61.15,65.32 C 73.16,53.31 73.16,33.77 61.15,21.77 55.33,15.95 47.6,12.75 39.37,12.75 H 28.38 c -0.4,0 -0.73,0.33 -0.73,0.73 v 83.58 c 0,0.3 0.18,0.56 0.45,0.67 0.09,0.04 0.19,0.06 0.28,0.06 0.19,0 0.38,-0.07 0.52,-0.21 l 24.01,-24 24.99,24.01 c 0.14,0.14 0.32,0.2 0.51,0.2 0.01,0 0.01,0 0.02,0 0.01,0 0.01,0 0.02,0 0.19,0 0.38,-0.07 0.52,-0.21 l 24.01,-24 24.99,24.01 c 0.14,0.14 0.32,0.2 0.51,0.2 0.19,0 0.38,-0.08 0.53,-0.22 0.24,-0.29 0.23,-0.75 -0.06,-1.03 z M 29.11,95.3 V 14.21 h 10.26 c 7.84,0 15.2,3.05 20.75,8.59 11.44,11.44 11.44,30.05 0,41.49 z m 50.05,0 V 14.21 h 10.26 c 7.84,0 15.2,3.05 20.75,8.59 11.44,11.44 11.44,30.05 0,41.49 z"
   id="path6"
   style="fill:#b0d4c0;fill-opacity:1" />
	</g>
</g>
</svg>
