<?xml version="1.0" encoding="UTF-8" standalone="no"?>
<svg
   xmlns:dc="http://purl.org/dc/elements/1.1/"
   xmlns:cc="http://creativecommons.org/ns#"
   xmlns:rdf="http://www.w3.org/1999/02/22-rdf-syntax-ns#"
   xmlns:svg="http://www.w3.org/2000/svg"
   xmlns="http://www.w3.org/2000/svg"
   xmlns:sodipodi="http://sodipodi.sourceforge.net/DTD/sodipodi-0.dtd"
   xmlns:inkscape="http://www.inkscape.org/namespaces/inkscape"
   version="1.1"
   id="Capa_1"
   x="0px"
   y="0px"
   viewBox="0 0 423.416 423.416"
   style="enable-background:new 0 0 423.416 423.416;"
   xml:space="preserve"
   sodipodi:docname="shopping-bags.svg"
   inkscape:version="1.0.1 (3bc2e813f5, 2020-09-07)"><metadata
   id="metadata49"><rdf:RDF><cc:Work
       rdf:about=""><dc:format>image/svg+xml</dc:format><dc:type
         rdf:resource="http://purl.org/dc/dcmitype/StillImage" /></cc:Work></rdf:RDF></metadata><defs
   id="defs47" /><sodipodi:namedview
   pagecolor="#ffffff"
   bordercolor="#666666"
   borderopacity="1"
   objecttolerance="10"
   gridtolerance="10"
   guidetolerance="10"
   inkscape:pageopacity="0"
   inkscape:pageshadow="2"
   inkscape:window-width="1366"
   inkscape:window-height="705"
   id="namedview45"
   showgrid="false"
   inkscape:zoom="1.2706181"
   inkscape:cx="211.70799"
   inkscape:cy="211.70799"
   inkscape:window-x="1592"
   inkscape:window-y="-8"
   inkscape:window-maximized="1"
   inkscape:current-layer="Capa_1" />
<g
   id="g12"
   style="fill:#ffffff">
	<g
   id="g10"
   style="fill:#ffffff">
		<g
   id="g8"
   style="fill:#ffffff">
			<path
   d="M420.688,145.096c-2.069-2.033-4.961-2.997-7.837-2.612H300.525V92.851c0-49.052-39.764-88.816-88.816-88.816     s-88.816,39.764-88.816,88.816v49.633H10.565c-3.135,0-6.269,0-7.837,2.612c-2.106,2.024-3.083,4.954-2.612,7.837L39.3,367.137     c5.474,29.881,31.275,51.746,61.649,52.245h221.518c30.461-0.749,56.208-22.787,61.649-52.767L423.3,152.933     C423.771,150.05,422.794,147.12,420.688,145.096z M143.79,92.851c0-37.51,30.408-67.918,67.918-67.918     c37.51,0,67.918,30.408,67.918,67.918v49.633H143.79V92.851z M363.218,364.002c-3.519,19.801-20.641,34.289-40.751,34.482     H100.949c-20.11-0.193-37.232-14.68-40.751-34.482l-37.094-200.62h377.208L363.218,364.002z"
   id="path2"
   style="fill:#ffffff" />
			<path
   d="M290.076,265.259c5.771,0,10.449-4.678,10.449-10.449v-31.347c0-5.771-4.678-10.449-10.449-10.449     c-5.771,0-10.449,4.678-10.449,10.449v31.347C279.626,260.581,284.305,265.259,290.076,265.259z"
   id="path4"
   style="fill:#ffffff" />
			<path
   d="M133.341,265.259c5.771,0,10.449-4.678,10.449-10.449v-31.347c0-5.771-4.678-10.449-10.449-10.449     c-5.771,0-10.449,4.678-10.449,10.449v31.347C122.892,260.581,127.57,265.259,133.341,265.259z"
   id="path6"
   style="fill:#ffffff" />
		</g>
	</g>
</g>
<g
   id="g14">
</g>
<g
   id="g16">
</g>
<g
   id="g18">
</g>
<g
   id="g20">
</g>
<g
   id="g22">
</g>
<g
   id="g24">
</g>
<g
   id="g26">
</g>
<g
   id="g28">
</g>
<g
   id="g30">
</g>
<g
   id="g32">
</g>
<g
   id="g34">
</g>
<g
   id="g36">
</g>
<g
   id="g38">
</g>
<g
   id="g40">
</g>
<g
   id="g42">
</g>
</svg>
